<svg xmlns="http://www.w3.org/2000/svg"
	 width="249.761" height="92.448" viewBox="310.268 218.727 249.761 92.448"
	 enable-background="new 310.268 218.727 249.761 92.448">
<path fill="#E20026" d="M377.814,222.173l0.391,0.503l0.112,25.114l-0.168,0.279c-1.506-0.781-2.734-2.344-4.129-3.403
	c-5.749-4.409-13.229-6.697-20.818-4.632c-8.037,1.842-14.901,10.156-16.353,18.026c-2.232,10.492,0.67,20.929,8.93,27.626
	c2.344,1.563,4.967,2.735,7.925,2.513l0.614-0.614v-10.661c3.628,1.172,7.033,2.903,10.771,3.907
	c4.241,1.562,8.261-0.502,12.056-1.675l1.061,0.057v26.956c-1.507,1.229-3.572,1.675-5.525,2.178
	c-19.479,4.13-40.296,0.39-52.63-16.129c-10.604-12.781-13.227-33.822-4.688-48.333c9.321-17.692,28.073-26.455,47.998-25.003
	C368.382,219.495,373.405,220.164,377.814,222.173z"/>
<path fill="#E20026" d="M458.015,221.281c7.031,1.116,14.062,2.399,19.478,7.534c7.59,6.81,8.985,17.916,6.529,27.737
	c-1.842,7.535-9.32,14.624-16.91,16.074c-0.502,0.224-0.279,0.838-0.168,1.172l16.576,31.867c0.056,0.614,0.67,0.949,0.502,1.675
	l-0.613,0.446l-26.622-0.11l-0.78-0.895l-13.508-34.379l-11.328-29.355l-7.813-20.371c-0.224-0.67,0.167-1.452,0.894-1.396
	L458.015,221.281L458.015,221.281z M444.229,239.475l-0.111,19.868c5.136-0.167,10.659,0.782,14.398-2.734
	c2.623-2.791,3.35-7.198,2.064-10.938C457.846,239.419,450.759,238.972,444.229,239.475z"/>
<path fill="#E20026" d="M554.12,243.382c7.98,16.91,5.136,40.183-7.311,54.247c-11.554,13.005-30.585,16.8-46.604,10.717
	c-13.562-4.8-24.39-18.809-26.845-32.538l0.278-0.614c11.272-5.859,16.854-17.58,15.795-30.138
	c-0.336-4.854-1.898-9.209-3.739-13.45c0.502-1.729,2.456-2.623,3.739-3.796c12.445-9.877,33.375-11.887,46.993-3.348
	C544.131,228.647,550.382,235.735,554.12,243.382z M521.471,242.266c-6.586-2.456-13.841-0.391-18.585,4.409
	c-6.864,6.697-8.427,17.301-5.639,26.229c1.787,6.643,7.312,14.12,14.513,15.571c5.972,1.396,11.832-0.559,16.072-4.912
	c7.199-7.812,9.378-19.923,5.19-29.857C531.182,248.739,526.326,244.274,521.471,242.266z"/>
<path fill="#E20026" d="M417.83,221.168c1.507,1.34,1.786,3.517,2.567,5.302l28.743,76.963c0.334,1.396,1.283,2.734,0.893,4.13
	l-0.78,0.224l-22.382-0.11c-1.227-0.614-1.172-2.121-1.842-3.126l-4.129-10.938l-0.67-0.726l-30.026-0.111
	c-1.004,0.391-1.116,1.451-1.507,2.232c-1.562,3.57-2.958,7.255-4.632,10.771h-0.225l0.112-60.722l8.763-22.156
	c0.279-0.726,0.502-1.675,1.396-1.842L417.83,221.168z M405.775,249.8c-0.392-0.113-0.279,0.167-0.502,0.279l-8.149,22.938
	c0,0.56-0.445,1.172,0,1.675l16.241,0.112c0.781,0.112,0.67-0.893,0.502-1.284l-7.032-21.208L405.775,249.8z"/>
<path fill="#E20026" d="M367.154,258.562c4.465,1.061,7.646-1.896,10.771-4.521h0.279v19.756c-1.228,2.064-3.627,2.512-5.691,3.237
	c-10.271,1.34-17.525-6.14-27.459-6.027c-1.73,0.223-2.848,2.121-4.298,2.902l-0.224-0.225v-17.58
	c1.73-1.953,4.241-2.289,6.642-2.791C354.764,252.814,360.513,256.832,367.154,258.562z"/>
<path d="M548.598,226.262c0-2.965,2.236-5.202,5.103-5.202c2.833,0,5.07,2.237,5.07,5.202c0,3.016-2.237,5.236-5.07,5.236
	C550.835,231.498,548.598,229.277,548.598,226.262z M553.7,232.541c3.413,0,6.329-2.65,6.329-6.279c0-3.595-2.916-6.245-6.329-6.245
	c-3.444,0-6.361,2.65-6.361,6.245C547.339,229.891,550.256,232.541,553.7,232.541z M552.376,226.759h1.26l1.903,3.131h1.228
	l-2.055-3.181c1.061-0.133,1.871-0.696,1.871-1.988c0-1.425-0.846-2.054-2.551-2.054h-2.751v7.224h1.095V226.759z M552.376,225.831
	v-2.237h1.49c0.763,0,1.573,0.166,1.573,1.061c0,1.11-0.828,1.177-1.756,1.177H552.376z"/>
</svg>
