<svg xmlns="http://www.w3.org/2000/svg"
viewBox="0 0 128.1 43.1" style="enable-background:new 0 0 128.1 43.1;">
<g fill="#00AAE1">
<path class="st0" d="M21.6,12.6V0.3h-6.2v35.4h6.2V21c0-1.2,0.5-2.9,1.3-3.8c0.8-0.9,1.5-1.3,1.8-1.4c0.3-0.1,1.2-0.5,2-0.5
c0.7,0,1.5,0,2,0.1c0.5,0.1,0.9,0.2,1.7,0.8c0,0,0.6,0.4,0.9,1.7c0.3,1.3,0.2,2.1,0.2,2.3v15.4l6.2,0V18.6c0-1.4-0.2-2.5-0.5-3.4
c-0.1-0.3-0.2-0.5-0.3-0.7c-0.1-0.1-0.2-0.4-0.4-0.7c-0.5-0.7-1.2-1.6-2.1-2.2c-1.2-0.8-2.5-1.5-3.8-1.6c-0.5-0.1-0.9-0.1-1.5-0.2
c-1-0.1-2.3,0-3.3,0.3c-1.7,0.5-2.4,0.9-3.8,2.1L21.6,12.6"/>
<path class="st0" d="M119.2,14.2v-3.9l-6.1,0v25.4h6.1V21.5c0.1-2.2,0.7-2.8,1.9-3.9c1.2-1.1,3-1.4,3.3-1.4c0.4,0,1.8-0.2,3.5,0.2
v-6.3c-1.2-0.3-3.6,0.2-4.1,0.4c-0.5,0.2-1.6,0.6-2.7,1.4C120.1,12.7,119.4,13.7,119.2,14.2"/>
<path class="st0" d="M102.6,30.8c-1.9,0.9-5.2,0.9-7.3-1.5c-1.9-2.1-1.9-5-1.8-5l0,0l18.5,0c0.2-2.2,0.1-6.1-1.6-9
c-1.7-2.9-4.1-4.8-7.6-5.6c-3.5-0.8-6.4-0.1-8.2,0.7c-1.8,0.8-3.9,2-5.7,5.3c0,0-1.4,2.5-1.4,6.8c0,4.3,1,6,1,6.3
c0,0.3,1,2.4,2.8,4.1c1.7,1.7,4.4,2.6,4.9,2.7c0.5,0.1,2.9,0.8,6.4,0.3c3.5-0.5,5.9-2.5,6.9-3.7c1-1.2,2.5-3.3,2.6-5.5v-0.2h-6.4
C105.4,28.2,104.4,29.8,102.6,30.8 M96.9,14.8c1-0.6,3.7-1.3,6,0.2c2.3,1.5,2.7,3.1,2.8,4.6l-12,0C94,16.6,95.8,15.3,96.9,14.8z"/>
<path class="st0" d="M63,35.7c-0.5-0.8-1.4-2.2-1.4-3.6V16.6c-0.1-0.7,0.2-2.9-2.1-4.8l-0.2-0.2c-1.2-0.9-2.6-1.2-3.8-1.6
c-1.2-0.3-2.7-0.5-4.6-0.5c-1.9,0-4.6,0.5-4.6,0.5c-2.5,0.6-4.1,1.9-5,3.3c-0.9,1.5-1.2,3.4-1.3,5h6c0,0-0.1-2,0.8-2.8
c0.8-0.8,2.1-1.2,4.6-1.3c0,0,2.1-0.1,3.3,0.7c1.1,0.8,1.1,1.4,1.2,2c0,0.6-0.1,1.3-0.2,1.5c-0.2,0.2-0.4,0.5-1.1,0.6l-5.5,1.1
c-2.7,0.5-3.9,0.8-5.6,1.4c-1.8,0.6-3.3,2.5-3.7,3.3c-0.4,0.8-1.1,2.7-0.7,4.5c0.4,1.9,1.2,3.5,2.8,4.6c1.6,1.1,3.2,1.8,5.4,2
c2.3,0.2,4-0.2,4.5-0.4c0.5-0.2,2.2-0.6,4-2.2v2.3H63 M53.3,30.3c-2.5,1.5-5.5,1.1-6,0.8c-0.6-0.3-2.1-0.7-2.3-3
c0,0-0.1-1.7,1.3-2.5c0,0,0.8-0.5,2-0.9c1.1-0.3,3.4-0.9,4.6-1.1c1.2-0.2,2.7-0.6,2.7-0.6v3C55.6,26.1,55.8,28.7,53.3,30.3z"/>
<path class="st0" d="M80.6,10.3v2.4C79.1,11.1,76.4,10,74,10c-2.4,0-5,0.5-6.9,2c-2,1.5-3.8,3.6-4.4,7.4
c-0.6,3.8-0.2,7.2,1.8,10.1c2,2.8,4.7,4.6,8.9,4.8c4.2,0.2,7.2-2.6,7.2-2.6v3.3c0,0,0.4,3.3-4.6,3.5c-5,0.2-6-1.4-6.2-2.9h-6.5
v0.3c0.4,3.7,3.1,5.1,3.1,5.1c4.3,2.8,12.8,1.4,12.8,1.4c4.3-0.8,5.9-3.3,5.9-3.3c1.1-1.6,1.2-2.4,1.3-4.1V10.3H80.6 M78.5,28
c-2,1.6-5.1,2.1-7.7,0.1c0,0-2.6-2-2.4-6.5c0.2-4.5,3-5.7,3.4-5.8c0.4-0.2,3.8-1.8,6.9,0.8c0,0,1.1,0.9,1.5,2.3
c0.4,1.3,0.4,2.9,0.4,2.9l0,0.4C80.7,24.4,80.5,26.3,78.5,28z"/>
</g>
<g fill-rule="evenodd" clip-rule="evenodd" fill="#00AAE1">
<path class="st1" d="M9.6,19.2c0,1.3-1,2.3-2.3,2.3H2.6c-1.3,0-2.3-1-2.3-2.3v-4.7c0-1.3,1-2.3,2.3-2.3h4.7c1.3,0,2.3,1,2.3,2.3
V19.2"/>
<path class="st1" d="M9.6,33.4c0,1.3-1,2.3-2.3,2.3H2.6c-1.3,0-2.3-1-2.3-2.3v-4.7c0-1.3,1-2.3,2.3-2.3h4.7c1.3,0,2.3,1,2.3,2.3
V33.4"/>
</g>
</svg>
