<svg xmlns="http://www.w3.org/2000/svg"
	 fill="#48c5d6" width="66" height="50" viewBox="248 295 120 250">
<g>
	<path d="M332.957,416.945c-1.162-18.219-16.275-32.644-34.785-32.644c-0.016,0-0.023,0-0.031,0.008
		c-0.016,0-0.021-0.008-0.037-0.008c-0.008,0-0.016,0-0.023,0.008c-0.008-0.008-0.016-0.008-0.023-0.008
		c-0.016,0-0.023,0.008-0.037,0.008c-0.008-0.008-0.016-0.008-0.032-0.008c-2.807,0.214-9.675,0.536-16.111,4.184
		c-0.649,0.643-0.791,1.561-0.432,2.149c0.321,0.543,3.018,3.327,4.982,5.5c2.311,1.881,4.143,1.369,5.183,1.201
		c2.883-0.895,5.491-0.971,6.423-0.971c10.295,0.015,18.984,6.807,21.93,16.138c0.236,0.459-0.191,0.887-0.834,0.887
		c-7.617,0-53.13,0.015-53.13,0.015c-1.579,0-2.685,1.262-2.685,2.54c-0.08,0.528-0.134,5.438-0.118,5.652
		c1.174,18.218,16.283,32.644,34.792,32.644h0.032h0.037h0.023h0.023h0.037h0.031c8.506-0.582,12.543-1.852,16.123-4.016
		c0.391-0.283,1.078-1.186,0.535-2.05c-0.145-0.666-3.135-3.603-5.109-5.768c-2.295-1.881-4.008-1.315-5.17-1.2
		c-2.602,0.742-5.492,0.971-6.426,0.971c-10.195-0.015-18.826-6.692-21.851-15.894c-0.122-0.374,0.111-1.132,0.77-1.132
		c7.645,0,51.906-0.022,53.115-0.022s2.691-1.255,2.691-2.532C332.92,422.092,332.973,417.151,332.957,416.945"/>
	<path d="M204.822,367.176v22.724c-0.016,12.865-10.471,23.313-23.347,23.336h-22.407
		c-0.719-0.069-0.821-0.191-0.867-0.704l-0.065-22.632c0.016-12.872,10.475-23.328,23.347-23.343h22.613
		C204.708,366.587,204.776,366.839,204.822,367.176 M215.881,355.933c-0.569-0.765-1.557-1.193-2.669-1.178h-31.737
		c-19.382,0.007-35.134,15.756-35.142,35.145c0,0.084,0,84.776,0.008,85.297c-0.03,0.573,0.455,1.14,0.83,1.262
		c0.374,0.16,0.681,0.176,0.948,0.176c0.195,0,0.344-0.022,0.413-0.022c6.888-0.758,9.572-5.239,9.603-7.786
		c0-1.454,0-8.873,0-20.537v-22.562c0.072-0.543,0.088-0.604,0.784-0.696c0.573,0,22.556,0,22.556,0.008
		c19.385-0.008,35.145-15.756,35.152-35.138v-31.397C216.62,357.592,216.456,356.682,215.881,355.933"/>
	<path d="M256.893,302.393c-0.513-1.17-1.702-1.614-2.593-1.576c-0.888,0.007-1.687,0.268-2.271,0.451
		c-9.4,3.06-17.316,11.197-17.294,24.101c0,0,0,0.015,0,0.03l0,0c0,0,0,52.522,0,88.318v32.621v0.016v6.118
		c-0.03,0.574,0.455,1.14,0.83,1.263c0.375,0.168,0.681,0.176,0.948,0.184c0.188,0,0.353-0.023,0.413-0.023
		c6.815-0.749,9.519-5.147,9.596-7.709l0.007-0.016v-6.509c0-3.488,0-8.261,0-14.097v-13.163v-87.002
		c0.054-10.417,4.191-16.039,8.578-18.854c1.032-0.795,2.034-1.583,2.08-2.99C257.195,303.15,257.088,302.752,256.893,302.393"/>
	<path d="M360.844,397.617v-5.591c0.031-0.566-0.459-1.132-0.826-1.262c-0.383-0.16-0.688-0.168-0.955-0.176
		c-0.176,0-0.346,0.008-0.498,0.031c-5.217,0.551-8.008,3.373-9.025,5.751c-0.32,0.436-0.49,0.972-0.482,1.515v0.352l-0.008,0.023
		v120.449c-0.098,10.326-4.205,15.925-8.564,18.716c-1.033,0.788-2.035,1.599-2.082,2.999c0,0.068,0,0.145,0,0.236
		s-0.014,0.199-0.014,0.314c0,0.39,0.105,0.825,0.336,1.208c0.443,1.048,1.561,1.507,2.432,1.507c0.039,0,0.092-0.008,0.123-0.008
		c0.887,0,1.682-0.268,2.248-0.436c9.34-3.044,17.209-11.083,17.316-23.811v-0.252c0-0.03,0-0.054,0-0.076l0,0v-0.329
		c0,0,0-0.069,0-0.199V397.663V397.617z"/>
	<path d="M414.094,425.235h22.402c0.727,0.077,0.818,0.207,0.871,0.704l0.061,22.647
		c-0.021,12.864-10.471,23.32-23.334,23.335h-2.762h-19.855c-0.605-0.03-0.682-0.282-0.727-0.619v-22.716
		C390.766,435.714,401.221,425.259,414.094,425.235 M449.223,363.291c0.037-0.582-0.451-1.14-0.834-1.27
		c-0.367-0.168-0.674-0.176-0.949-0.176c-0.168,0-0.336,0.008-0.496,0.031c-6.799,0.742-9.484,5.231-9.508,7.786
		c0,1.446-0.008,8.865-0.008,20.536v22.563c-0.068,0.527-0.084,0.596-0.771,0.681h-22.562
		c-19.383,0.007-35.139,15.755-35.146,35.145v31.397c0.008,0.902,0.176,1.812,0.75,2.569c0.559,0.742,1.521,1.17,2.607,1.17h31.789
		c19.373-0.007,35.129-15.756,35.137-35.137C449.23,448.495,449.223,363.811,449.223,363.291"/>
</g>
</svg>
